<svg xmlns="http://www.w3.org/2000/svg" width="193" height="92" viewBox="0 0 193 92"><defs><style>.a{fill:#6979f8;}.b,.c{fill:#fff;}.b{font-size:22px;font-family:Rubik-Medium, Rubik;font-weight:500;}.d{fill:none;}</style></defs><g transform="translate(-50)"><path class="a" d="M0,0H193a0,0,0,0,1,0,0V86a6,6,0,0,1-6,6H6a6,6,0,0,1-6-6V0A0,0,0,0,1,0,0Z" transform="translate(50)"/><g transform="translate(52.284 -7)"><text class="b" transform="translate(82.283 64)"><tspan x="0" y="0">Feed U</tspan></text><g transform="translate(29 43.037)"><path class="c" d="M10,60.569C10,53.075,17.005,47,25.646,47s15.646,6.075,15.646,13.569Z" transform="translate(-5.329 -44.923)"/><ellipse class="c" cx="1.938" cy="1.938" rx="1.938" ry="1.938" transform="translate(18.241 0)"/><path class="c" d="M272.09,630.564c-1.63.571-2.291-.439-3.111-.872a25.455,25.455,0,0,0-8.021-2.285,46.9,46.9,0,0,0-5.753-.379c-.652-.02-.849-.127-.518-.539a20.081,20.081,0,0,0,1.428-2c.27-.435.623-.479,1.293-.35,5.074.98,9.734,2.382,13.208,5.011.482.365.732.216,1.1-.059,3.436-2.575,8.031-3.951,13-4.943.746-.149,1.171-.1,1.48.4.487.792,1.089,1.557,1.689,2.4-2.236.16-4.357.265-6.452.471a21.754,21.754,0,0,0-8.906,2.656c-.2.117-.725.185-.443.5Z" transform="translate(-250.819 -606.178)"/><path class="c" d="M271.069,652.357a40.7,40.7,0,0,1,10.81-2.767c1.392-.134,2.793-.214,4.2-.22.366,0,.8.01.809.318,0,.336-.423.364-.86.374a36.1,36.1,0,0,0-13.154,2.342,2.4,2.4,0,0,0-1.462,1.13,1.2,1.2,0,0,1-1.193.754,1.232,1.232,0,0,1-1.31-.762c-.195-.562-.8-.8-1.5-1.089a32.821,32.821,0,0,0-13.01-2.359c-.455.006-1.089.09-1.051-.383.033-.409.616-.328,1.033-.318a35.765,35.765,0,0,1,13.844,2.674c.512.23,1.017.471,1.131.914a.706.706,0,0,0,.82.634.773.773,0,0,0,.841-.722,3.59,3.59,0,0,0,.054-.524Z" transform="translate(-249.801 -627.968)"/><g transform="translate(0 25.091) rotate(-0.974)"><path class="d" d="M20.393.582c.475,0,.537.014,1.016.018,10.635.08,19.55.058,19.551.848,0,.825-9.166,1.462-20.479,1.424S0,2.133,0,1.309C0,.641,14.9.693,19.2.561c.76-.023.01-.561.01-.561A2.78,2.78,0,0,0,20.393.582Z" transform="translate(0 0)"/><path class="c" d="M19.768,1.136l-.064.029a1.385,1.385,0,0,1-.478.089c-1.114.034-2.919.056-5.009.081-2.832.034-6.041.073-8.732.155q-.692.021-1.286.044c.784.078,1.67.152,2.651.219,3.747.258,8.59.409,13.635.426l.961,0c4.843,0,9.458-.127,13-.357,1.243-.081,2.325-.172,3.23-.272-.656-.037-1.422-.069-2.312-.1-2.908-.089-6.664-.114-11.013-.143L21.4,1.292c-.237,0-.374-.006-.507-.009s-.268-.008-.507-.008a1.673,1.673,0,0,1-.623-.138M19.214,0s.022.016.055.042Zm.055.042a2.54,2.54,0,0,0,1.124.539c.475,0,.537.014,1.016.018,10.635.08,19.55.058,19.552.848S32.309,2.872,21.446,2.872l-.963,0C9.172,2.833,0,2.133,0,1.309,0,.641,14.9.693,19.2.561,19.834.542,19.428.17,19.27.042Z" transform="translate(0 0)"/></g><g transform="translate(3.107 24.47)"><path class="d" d="M17.669,2.384c.189,0,2.3-.089,2.51-.088,9.657.014,15.251.34,15.249,1.411,0,1.091-8.061,1.99-18,2.008s-18-.852-17.993-1.943c0-1.007,6.775-1.249,15.673-1.387C15.823,2.373,17.418,4.34,17.669,2.384Z" transform="translate(0.566 -2.296)"/><path class="c" d="M20.177,2.572c-.108,0-.759.025-1.334.047l-.94.035a1.4,1.4,0,0,1-.243.577.745.745,0,0,1-.606.3,2.6,2.6,0,0,1-1.219-.511,2.258,2.258,0,0,0-.723-.356h0c-3.692.057-7.868.143-10.846.345A30.41,30.41,0,0,0,.95,3.368a5.459,5.459,0,0,0-.932.241.838.838,0,0,0-.3.165.928.928,0,0,0,.338.213A6.261,6.261,0,0,0,1.12,4.32,31.419,31.419,0,0,0,4.908,4.9c3.288.345,7.627.535,12.216.535h.3c4.655-.008,9.068-.211,12.425-.57a32.229,32.229,0,0,0,3.861-.6,6.424,6.424,0,0,0,1.083-.34.832.832,0,0,0,.353-.229c-.007-.022-.04-.067-.131-.126a2.535,2.535,0,0,0-.686-.267,18.091,18.091,0,0,0-2.93-.423c-2.43-.2-6-.3-11.224-.309h0m0-.277h0c9.656.015,15.251.34,15.249,1.411,0,1.091-8.062,1.99-18,2.008h-.3c-9.8,0-17.693-.863-17.69-1.943,0-1.007,6.775-1.249,15.673-1.387h.006c.479,0,1.344.867,1.942.867.3,0,.531-.217.614-.867C17.857,2.383,19.961,2.3,20.177,2.3Z" transform="translate(0.566 -2.295)"/></g><path class="c" d="M271.069,652.357a40.7,40.7,0,0,1,10.81-2.767c1.392-.134,2.793-.214,4.2-.22.366,0,.8.01.809.318,0,.336-.423.364-.86.374a36.1,36.1,0,0,0-13.154,2.342,2.4,2.4,0,0,0-1.462,1.13,1.2,1.2,0,0,1-1.193.754,1.232,1.232,0,0,1-1.31-.762c-.195-.562-.8-.8-1.5-1.089a32.821,32.821,0,0,0-13.01-2.359c-.455.006-1.089.09-1.051-.383.033-.409.616-.328,1.033-.318a35.765,35.765,0,0,1,13.844,2.674c.512.23,1.017.471,1.131.914a.706.706,0,0,0,.82.634.773.773,0,0,0,.841-.722,3.59,3.59,0,0,0,.054-.524Z" transform="translate(-249.801 -627.968)"/><path class="c" d="M4.586,0c3.683,1.2-.064,0,.355.052A8.637,8.637,0,0,1,9.1,1.848c0,.244-1.141-.9-4.218-1.022S0,2.092,0,1.848A6.456,6.456,0,0,1,4.586,0Z" transform="translate(29.837 5.594) rotate(60)"/></g></g></g></svg>