<svg xmlns="http://www.w3.org/2000/svg" width="30.908" height="22.323" viewBox="0 0 30.908 22.323"><defs><style>.a{fill:#fff;}</style></defs><path class="a" d="M29.621,125.244H1.288a1.288,1.288,0,0,1,0-2.576H29.621a1.288,1.288,0,0,1,0,2.576Zm0,0" transform="translate(0 -112.794)"/><path class="a" d="M29.621,2.576H1.288A1.288,1.288,0,1,1,1.288,0H29.621a1.288,1.288,0,0,1,0,2.576Zm0,0" transform="translate(0)"/><path class="a" d="M29.621,247.908H1.288a1.288,1.288,0,0,1,0-2.576H29.621a1.288,1.288,0,0,1,0,2.576Zm0,0" transform="translate(0 -225.585)"/></svg>