<svg xmlns="http://www.w3.org/2000/svg" width="154.92" height="105.636" viewBox="0 0 154.92 105.636"><defs><style>.a{fill:#f0f0f0;}.b{fill:#6979f8;}.c,.d{fill:none;}.d{stroke:#7056f9;stroke-width:5px;}.e{fill:#dba5f5;}</style></defs><g transform="translate(-6800.936 -171.304)"><path class="a" d="M10,98.26C10,69.95,36.463,47,69.106,47s59.106,22.95,59.106,51.26Z" transform="translate(6808.582 132.15)"/><circle class="a" cx="7.323" cy="7.323" r="7.323" transform="translate(6869.842 171.304)"/><path class="b" d="M320.868,648.594c-6.156,2.158-8.656-1.658-11.753-3.3-8.914-4.719-19.364-6.935-30.3-8.63-7.125-1.1-14.449-1.21-21.734-1.43-2.465-.075-3.206-.481-1.956-2.035a75.826,75.826,0,0,0,5.395-7.559c1.018-1.643,2.354-1.81,4.884-1.321,19.166,3.7,36.771,9,49.893,18.93,1.822,1.38,2.764.818,4.154-.224,12.98-9.729,30.338-14.925,49.124-18.673,2.82-.563,4.425-.395,5.593,1.5,1.841,2.994,4.114,5.883,6.379,9.062-8.446.6-16.458,1-24.375,1.778-12.744,1.249-24.125,4.479-33.642,10.035-.756.442-2.737.7-1.674,1.873Z" transform="translate(6560.422 -385.168)"/><path class="a" d="M320.293,660.669c12.715-4.865,25.892-9.012,40.835-10.453,5.26-.507,10.55-.81,15.872-.83,1.381-.005,3.039.037,3.057,1.2.018,1.269-1.6,1.377-3.249,1.412-17.72.383-34.612,2.56-49.691,8.849-2.651,1.105-4.7,2.242-5.522,4.27a4.528,4.528,0,0,1-4.508,2.847c-2.924.052-4.425-1.368-4.948-2.877-.735-2.121-3.04-3.04-5.672-4.113a123.979,123.979,0,0,0-49.145-8.91c-1.717.024-4.114.34-3.969-1.448.126-1.544,2.327-1.241,3.9-1.2,18.864.442,36.667,3.089,52.3,10.1,1.935.868,3.841,1.779,4.271,3.452a2.665,2.665,0,0,0,3.1,2.4c2.492-.084,2.873-1.481,3.177-2.728a13.6,13.6,0,0,0,.2-1.98Z" transform="translate(6560.985 -397.231)"/><g transform="translate(6800.936 266.088) rotate(-0.974)"><path class="c" d="M77.038,2.2c1.795.006,2.028.052,3.84.067,40.175.3,73.853.218,73.856,3.2.005,3.115-34.627,5.523-77.361,5.379S.005,8.058,0,4.943C0,2.42,56.3,2.617,72.549,2.119,75.42,2.031,72.586,0,72.586,0S75.328,2.191,77.038,2.2Z" transform="translate(0 0.001)"/><path class="a" d="M74.676,4.291q-.118.058-.243.108a5.232,5.232,0,0,1-1.806.334c-4.207.129-11.026.211-18.922.306-10.7.129-22.82.275-32.985.584q-2.612.08-4.858.168c2.962.3,6.308.572,10.014.827,14.155.974,32.448,1.546,51.509,1.611,1.205,0,2.426.006,3.629.006,18.293,0,35.729-.478,49.1-1.347,4.7-.305,8.783-.65,12.2-1.029-2.476-.141-5.371-.261-8.735-.363-10.987-.334-25.174-.43-41.6-.54-3.613-.024-7.348-.049-11.12-.078-.893-.007-1.412-.021-1.914-.035-.52-.015-1.011-.028-1.915-.032a6.319,6.319,0,0,1-2.353-.522M72.584,0s.084.06.209.161C72.66.06,72.584,0,72.584,0Zm.209.161c.672.506,2.818,2.032,4.244,2.037,1.795.006,2.028.053,3.84.067,40.175.3,73.853.218,73.858,3.2.005,3.026-32.682,5.385-73.721,5.385-1.207,0-2.417,0-3.638-.006C34.648,10.7.005,8.059,0,4.944,0,2.42,56.3,2.618,72.547,2.119,74.924,2.046,73.392.642,72.793.161Z" transform="translate(0 0)"/></g><g transform="translate(6812.673 263.744)"><path class="c" d="M68.318,2.63c.713,0,8.692-.336,9.483-.334,36.48.054,57.612,1.286,57.605,5.328-.008,4.121-30.453,7.517-68,7.584S-.574,11.991-.566,7.87c.007-3.8,25.595-4.717,59.206-5.24C61.347,2.588,67.371,10.018,68.318,2.63Z" transform="translate(0.566 -2.296)"/><path class="a" d="M77.8,3.341c-.407,0-2.867.094-5.038.177-1.583.061-2.788.106-3.552.133a5.28,5.28,0,0,1-.918,2.18A2.813,2.813,0,0,1,66,6.95c-1.488,0-3.073-.981-4.6-1.929a8.531,8.531,0,0,0-2.731-1.345h-.007c-13.948.217-29.724.542-40.973,1.305A114.88,114.88,0,0,0,5.16,6.347a20.621,20.621,0,0,0-3.522.911,3.167,3.167,0,0,0-1.122.624,3.506,3.506,0,0,0,1.276.8A23.653,23.653,0,0,0,5.8,9.943a118.691,118.691,0,0,0,14.308,2.2c12.422,1.3,28.812,2.023,46.149,2.023H67.4c17.585-.032,34.255-.8,46.938-2.154a121.749,121.749,0,0,0,14.586-2.266,24.267,24.267,0,0,0,4.093-1.286,3.142,3.142,0,0,0,1.335-.866c-.026-.082-.15-.253-.494-.477a9.577,9.577,0,0,0-2.593-1.01,68.341,68.341,0,0,0-11.068-1.6c-9.181-.765-22.654-1.135-42.4-1.166h0m0-1.046h0c36.478.057,57.613,1.286,57.605,5.329-.008,4.121-30.453,7.517-68,7.585H66.261C29.239,15.21-.575,11.949-.566,7.87c.008-3.8,25.6-4.717,59.206-5.24h.023C60.473,2.629,63.741,5.9,66,5.9c1.129,0,2-.818,2.319-3.274C69.029,2.628,76.979,2.3,77.8,2.3Z" transform="translate(0.566 -2.295)"/></g><path class="d" d="M9.784,4.349" transform="translate(6865.549 237.306)"/><path class="a" d="M320.293,660.669c12.715-4.865,25.892-9.012,40.835-10.453,5.26-.507,10.55-.81,15.872-.83,1.381-.005,3.039.037,3.057,1.2.018,1.269-1.6,1.377-3.249,1.412-17.72.383-34.612,2.56-49.691,8.849-2.651,1.105-4.7,2.242-5.522,4.27a4.528,4.528,0,0,1-4.508,2.847c-2.924.052-4.425-1.368-4.948-2.877-.735-2.121-3.04-3.04-5.672-4.113a123.979,123.979,0,0,0-49.145-8.91c-1.717.024-4.114.34-3.969-1.448.126-1.544,2.327-1.241,3.9-1.2,18.864.442,36.667,3.089,52.3,10.1,1.935.868,3.841,1.779,4.271,3.452a2.665,2.665,0,0,0,3.1,2.4c2.492-.084,2.873-1.481,3.177-2.728a13.6,13.6,0,0,0,.2-1.98Z" transform="translate(6560.985 -397.231)"/><path class="e" d="M17.325,0c13.913,4.519-.242.012,1.341.2,7.21.842,15.725,6.01,15.725,6.786,0,.922-4.311-3.4-15.935-3.862S0,7.9,0,6.982,7.829,0,17.325,0Z" transform="translate(6913.647 192.434) rotate(60)"/></g></svg>